<svg width="14" height="15" viewBox="0 0 14 15" fill="none" xmlns="http://www.w3.org/2000/svg">
<path fill-rule="evenodd" clip-rule="evenodd" d="M10 4C10 5.65685 8.6569 7 7.00005 7C5.34319 7 4.00005 5.65685 4.00005 4C4.00005 2.34315 5.34319 1 7.00005 1C8.6569 1 10 2.34315 10 4ZM9.13931 7.38048C10.2577 6.67126 11 5.42232 11 4C11 1.79086 9.20918 0 7.00005 0C4.79091 0 3.00005 1.79086 3.00005 4C3.00005 5.42232 3.7424 6.67125 4.86078 7.38048C2.17395 8.36497 0.194097 11.1542 0.0135061 14.4998C-0.00137793 14.7756 0.227014 15 0.503157 15H7.00005H13.4978C13.7739 15 14.0015 14.7756 13.9866 14.4998C13.806 11.1542 11.8261 8.36497 9.13931 7.38048ZM7.00005 8C9.92085 8 12.5147 10.5082 12.9395 14H12.9382H12.9163H12.8946H12.8729H12.8514H12.8299H12.8086H12.7874H12.7662H12.7452H12.7243H12.7035H12.6829H12.6623H12.6418H12.6214H12.6012H12.581H12.5609H12.541H12.5211H12.5014H12.4817H12.4622H12.4427H12.4234H12.4041H12.385H12.366H12.347H12.3282H12.3094H12.2908H12.2722H12.2537H12.2354H12.2171H12.199H12.1809H12.1629H12.145H12.1272H12.1095H12.0919H12.0744H12.057H12.0396H12.0224H12.0052H11.9882H11.9712H11.9543H11.9376H11.9208H11.9042H11.8877H11.8713H11.8549H11.8386H11.8225H11.8064H11.7904H11.7744H11.7586H11.7428H11.7272H11.7116H11.696H11.6806H11.6653H11.65H11.6348H11.6197H11.6047H11.5897H11.5749H11.5601H11.5454H11.5307H11.5162H11.5017H11.4873H11.473H11.4587H11.4445H11.4304H11.4164H11.4025H11.3886H11.3748H11.361H11.3474H11.3338H11.3202H11.3068H11.2934H11.2801H11.2668H11.2537H11.2406H11.2275H11.2145H11.2016H11.1888H11.176H11.1633H11.1507H11.1381H11.1256H11.1131H11.1008H11.0884H11.0762H11.064H11.0518H11.0398H11.0278H11.0158H11.0039H10.9921H10.9803H10.9686H10.9569H10.9453H10.9338H10.9223H10.9109H10.8995H10.8882H10.8769H10.8657H10.8546H10.8435H10.8324H10.8214H10.8105H10.7996H10.7888H10.778H10.7673H10.7566H10.746H10.7354H10.7248H10.7144H10.7039H10.6935H10.6832H10.6729H10.6626H10.6524H10.6423H10.6322H10.6221H10.6121H10.6021H10.5922H10.5823H10.5724H10.5626H10.5528H10.5431H10.5334H10.5238H10.5142H10.5046H10.4951H10.4856H10.4762H10.4667H10.4574H10.448H10.4387H10.4295H10.4202H10.411H10.4019H10.3928H10.3837H10.3746H10.3656H10.3566H10.3476H10.3387H10.3298H10.3209H10.3121H10.3033H10.2945H10.2858H10.277H10.2683H10.2597H10.251H10.2424H10.2338H10.2253H10.2168H10.2082H10.1998H10.1913H10.1829H10.1744H10.1661H10.1577H10.1493H10.141H10.1327H10.1244H10.1162H10.1079H10.0997H10.0915H10.0833H10.0752H10.067H10.0589H10.0508H10.0427H10.0346H10.0265H10.0184H10.0104H10.0024H9.99437H9.98637H9.97839H9.97041H9.96245H9.9545H9.94656H9.93863H9.93072H9.92281H9.91491H9.90702H9.89914H9.89126H9.8834H9.87554H9.86769H9.85984H9.852H9.84416H9.83633H9.82851H9.82068H9.81287H9.80505H9.79724H9.78943H9.78162H9.77381H9.76601H9.7582H9.7504H9.74259H9.73478H9.72698H9.71917H9.71136H9.70354H9.69572H9.6879H9.68008H9.67225H9.66442H9.65658H9.64874H9.64088H9.63303H9.62516H9.61729H9.60942H9.60153H9.59363H9.58573H9.57781H9.56989H9.56196H9.55401H9.54605H9.53808H9.5301H9.52211H9.5141H9.50609H9.49805H9.49H9.48194H9.47386H9.46577H9.45766H9.44953H9.44139H9.43323H9.42505H9.41685H9.40864H9.4004H9.39215H9.38388H9.37558H9.36727H9.35893H9.35057H9.34219H9.33379H9.32536H9.31691H9.30843H9.29994H9.29141H9.28286H9.27429H9.26569H9.25706H9.24841H9.23973H9.23102H9.22228H9.21351H9.20471H9.19589H9.18703H9.17815H9.16923H9.16028H9.1513H9.14229H9.13324H9.12416H9.11505H9.10591H9.09672H9.08751H9.07826H9.06897H9.05965H9.05029H9.04089H9.03146H9.02199H9.01248H9.00293H8.99334H8.98371H8.97404H8.96433H8.95458H8.94479H8.93495H8.92508H8.91516H8.9052H8.89519H8.88514H8.87505H8.86491H8.85472H8.84449H8.83422H8.82389H8.81352H8.80311H8.79264H8.78212H8.77156H8.76095H8.75029H8.73957H8.72881H8.71799H8.70713H8.69621H8.68524H8.67422H8.66314H8.65201H8.64082H8.62959H8.61829H8.60694H8.59554H8.58407H8.57256H8.56098H8.54935H8.53765H8.5259H8.5141H8.50223H8.4903H8.47831H8.46626H8.45415H8.44198H8.42974H8.41745H8.40509H8.39267H8.38018H8.36763H8.35501H8.34233H8.32959H8.31677H8.3039H8.29095H8.27794H8.26486H8.25171H8.23849H8.22521H8.21185H8.19843H8.18493H8.17136H8.15773H8.14402H8.13024H8.11638H8.10246H8.08846H8.07438H8.06023H8.04601H8.03171H8.01734H8.00289H7.98836H7.97376H7.95908H7.94432H7.92948H7.91457H7.89957H7.8845H7.86935H7.85411H7.8388H7.8234H7.80792H7.79236H7.77672H7.76099H7.74519H7.72929H7.71332H7.69725H7.68111H7.66487H7.64855H7.63215H7.61566H7.59908H7.58241H7.56565H7.54881H7.53187H7.51485H7.49774H7.48053H7.46324H7.44585H7.42837H7.4108H7.39314H7.37538H7.35754H7.33959H7.32155H7.30342H7.28519H7.26687H7.24845H7.22993H7.21132H7.19261H7.1738H7.15489H7.13589H7.11678H7.09758H7.07827H7.05887H7.03936H7.01976H7.00005H6.97836H6.95679H6.93532H6.91395H6.89269H6.87154H6.85049H6.82955H6.80871H6.78798H6.76735H6.74682H6.7264H6.70607H6.68585H6.66573H6.64571H6.62579H6.60597H6.58625H6.56663H6.54711H6.52769H6.50836H6.48914H6.47001H6.45097H6.43203H6.41319H6.39444H6.37579H6.35724H6.33877H6.3204H6.30213H6.28394H6.26585H6.24785H6.22995H6.21213H6.1944H6.17677H6.15922H6.14177H6.1244H6.10712H6.08993H6.07283H6.05581H6.03888H6.02204H6.00529H5.98862H5.97203H5.95553H5.93911H5.92278H5.90653H5.89037H5.87428H5.85828H5.84236H5.82653H5.81077H5.79509H5.7795H5.76398H5.74854H5.73319H5.71791H5.7027H5.68758H5.67253H5.65756H5.64267H5.62785H5.61311H5.59844H5.58385H5.56933H5.55488H5.54051H5.52621H5.51199H5.49783H5.48375H5.46974H5.4558H5.44193H5.42813H5.41439H5.40073H5.38714H5.37361H5.36016H5.34677H5.33345H5.32019H5.307H5.29387H5.28082H5.26782H5.25489H5.24203H5.22922H5.21648H5.20381H5.19119H5.17864H5.16615H5.15372H5.14135H5.12904H5.1168H5.10461H5.09248H5.0804H5.06839H5.05643H5.04453H5.03269H5.02091H5.00917H4.9975H4.98588H4.97432H4.96281H4.95135H4.93995H4.9286H4.9173H4.90605H4.89486H4.88372H4.87262H4.86158H4.85059H4.83965H4.82876H4.81792H4.80712H4.79637H4.78567H4.77502H4.76441H4.75385H4.74334H4.73287H4.72245H4.71207H4.70173H4.69144H4.68119H4.67099H4.66083H4.6507H4.64063H4.63059H4.62059H4.61063H4.60072H4.59084H4.581H4.5712H4.56144H4.55171H4.54202H4.53237H4.52276H4.51318H4.50364H4.49413H4.48466H4.47522H4.46582H4.45645H4.44711H4.43781H4.42854H4.4193H4.41009H4.40091H4.39176H4.38264H4.37356H4.3645H4.35547H4.34647H4.33749H4.32855H4.31963H4.31074H4.30187H4.29303H4.28422H4.27543H4.26666H4.25792H4.24921H4.24051H4.23184H4.2232H4.21457H4.20597H4.19738H4.18882H4.18028H4.17176H4.16326H4.15477H4.14631H4.13786H4.12944H4.12103H4.11263H4.10425H4.09589H4.08755H4.07922H4.0709H4.0626H4.05432H4.04604H4.03778H4.02953H4.0213H4.01308H4.00487H3.99667H3.98848H3.9803H3.97213H3.96397H3.95581H3.94767H3.93954H3.93141H3.92329H3.91518H3.90707H3.89897H3.89087H3.88278H3.8747H3.86662H3.85854H3.85047H3.8424H3.83433H3.82626H3.8182H3.81013H3.80207H3.79401H3.78595H3.77789H3.76982H3.76176H3.75369H3.74563H3.73756H3.72948H3.72141H3.71333H3.70524H3.69715H3.68906H3.68096H3.67285H3.66474H3.65662H3.6485H3.64037H3.63222H3.62407H3.61592H3.60775H3.59957H3.59138H3.58318H3.57498H3.56676H3.55852H3.55028H3.54202H3.53375H3.52547H3.51717H3.50886H3.50053H3.49219H3.48383H3.47546H3.46707H3.45866H3.45024H3.44179H3.43333H3.42485H3.41636H3.40784H3.3993H3.39074H3.38217H3.37357H3.36495H3.3563H3.34764H3.33895H3.33024H3.3215H3.31274H3.30396H3.29515H3.28632H3.27746H3.26857H3.25966H3.25072H3.24175H3.23276H3.22373H3.21468H3.2056H3.19649H3.18735H3.17817H3.16897H3.15974H3.15047H3.14118H3.13184H3.12248H3.11309H3.10365H3.09419H3.08469H3.07516H3.06559H3.05598H3.04634H3.03666H3.02694H3.01719H3.0074H2.99756H2.98769H2.97779H2.96784H2.95785H2.94782H2.93775H2.92764H2.91748H2.90729H2.89705H2.88676H2.87644H2.86607H2.85565H2.8452H2.83469H2.82414H2.81354H2.8029H2.79221H2.78148H2.77069H2.75986H2.74898H2.73804H2.72706H2.71603H2.70495H2.69382H2.68264H2.6714H2.66012H2.64878H2.63739H2.62594H2.61444H2.60289H2.59128H2.57962H2.5679H2.55613H2.5443H2.53241H2.52046H2.50846H2.4964H2.48429H2.47211H2.45987H2.44758H2.43522H2.4228H2.41033H2.39779H2.38519H2.37252H2.3598H2.34701H2.33416H2.32124H2.30826H2.29521H2.2821H2.26893H2.25569H2.24238H2.229H2.21556H2.20205H2.18847H2.17482H2.16111H2.14732H2.13347H2.11954H2.10554H2.09148H2.07734H2.06313H2.04884H2.03449H2.02006H2.00555H1.99098H1.97632H1.9616H1.9468H1.93192H1.91696H1.90193H1.88682H1.87164H1.85638H1.84104H1.82561H1.81012H1.79454H1.77888H1.76314H1.74732H1.73142H1.71543H1.69937H1.68322H1.66699H1.65067H1.63428H1.61779H1.60123H1.58457H1.56784H1.55101H1.5341H1.51711H1.50002H1.48285H1.46559H1.44824H1.4308H1.41328H1.39566H1.37796H1.36016H1.34227H1.32429H1.30622H1.28806H1.2698H1.25145H1.23301H1.21447H1.19584H1.17711H1.15829H1.13937H1.12036H1.10125H1.08204H1.06274H1.06054C1.48541 10.5082 4.07924 8 7.00005 8Z" fill="white"/>
</svg>
