<svg width="16" height="16" viewBox="0 0 16 16" fill="none" xmlns="http://www.w3.org/2000/svg">
<path fill-rule="evenodd" clip-rule="evenodd" d="M6.7309 14.3763L6.63387 14.8668C5.7155 14.6851 4.86173 14.3238 4.11069 13.821L4.38885 13.4055L4.66701 12.99C4.01227 12.5517 3.44835 11.9877 3.01001 11.333L2.59453 11.6111L2.17904 11.8893C1.67623 11.1383 1.31492 10.2845 1.13324 9.36613L1.62373 9.2691L2.11423 9.17206C2.03939 8.79379 2 8.40199 2 8C2 7.59801 2.03939 7.20621 2.11423 6.82794L1.62373 6.7309L1.13324 6.63387C1.31492 5.7155 1.67623 4.86173 2.17904 4.11069L2.59453 4.38885L3.01001 4.66701C3.44835 4.01227 4.01227 3.44835 4.66701 3.01001L4.38885 2.59453L4.11069 2.17905C4.86173 1.67623 5.7155 1.31492 6.63387 1.13324L6.7309 1.62373L6.82793 2.11423C7.20621 2.03939 7.59801 2 8 2C8.40199 2 8.79379 2.03939 9.17206 2.11423L9.2691 1.62373L9.36613 1.13324C10.2845 1.31492 11.1383 1.67623 11.8893 2.17904L11.6111 2.59453L11.333 3.01001C11.9877 3.44835 12.5517 4.01227 12.99 4.66701L13.4055 4.38885L13.821 4.11069C14.3397 4.88551 14.7078 5.76966 14.8835 6.72127C14.8781 6.69207 14.8725 6.66294 14.8668 6.63387L14.3763 6.7309L13.8858 6.82793C13.9606 7.20621 14 7.59801 14 8C14 8.40199 13.9606 8.79379 13.8858 9.17206L14.3763 9.2691L14.8668 9.36613C14.6851 10.2845 14.3238 11.1383 13.821 11.8893L13.4055 11.6111L12.99 11.333C12.5517 11.9877 11.9877 12.5517 11.333 12.99L11.6111 13.4055L11.8893 13.821C11.1383 14.3238 10.2845 14.6851 9.36613 14.8668L9.2691 14.3763L9.17206 13.8858C8.79379 13.9606 8.40199 14 8 14C7.59801 14 7.20621 13.9606 6.82794 13.8858L6.7309 14.3763ZM8 16C12.4183 16 16 12.4183 16 8C16 3.58172 12.4183 0 8 0C3.58172 0 0 3.58172 0 8C0 12.4183 3.58172 16 8 16ZM10.0831 4.87139C10.1262 4.68496 9.91294 4.56185 9.77302 4.69236C9.11894 5.30243 7.88968 6.50437 7.217 7.51536C7.09463 7.69927 6.95974 7.92336 6.8339 8.14112C6.55963 8.61575 6.73479 9.21644 7.20952 9.49053C7.68426 9.76461 8.29205 9.61597 8.56595 9.14112C8.69162 8.92326 8.81824 8.6944 8.91633 8.49646C9.45553 7.40841 9.88181 5.74288 10.0831 4.87139Z" fill="white"/>
</svg>
