<svg width="18" height="13" viewBox="0 0 18 13" fill="none" xmlns="http://www.w3.org/2000/svg">
<path fill-rule="evenodd" clip-rule="evenodd" d="M1 3.14522V1H11V1.38889C11 1.66503 11.2239 1.88889 11.5 1.88889C11.7761 1.88889 12 1.66503 12 1.38889V1H17V3.14522C15.5543 3.57574 14.5 4.91377 14.5 6.5C14.5 8.08623 15.5543 9.42426 17 9.85478V12H12V11.6111C12 11.335 11.7761 11.1111 11.5 11.1111C11.2239 11.1111 11 11.335 11 11.6111V12H1V9.85478C2.44566 9.42426 3.5 8.08623 3.5 6.5C3.5 4.91377 2.44566 3.57574 1 3.14522ZM11.5 13H0.5C0.223858 13 0 12.7761 0 12.5V9.5C0 9.22386 0.226113 9.00522 0.496808 8.95064C1.63952 8.72024 2.5 7.71061 2.5 6.5C2.5 5.28939 1.63952 4.27976 0.496807 4.04936C0.226113 3.99478 0 3.77614 0 3.5V0.5C0 0.223858 0.223858 0 0.5 0H11.5H17.5C17.7761 0 18 0.223858 18 0.5V3.5C18 3.77614 17.7739 3.99478 17.5032 4.04936C16.3605 4.27976 15.5 5.28939 15.5 6.5C15.5 7.71061 16.3605 8.72024 17.5032 8.95064C17.7739 9.00522 18 9.22386 18 9.5V12.5C18 12.7761 17.7761 13 17.5 13H11.5ZM11 9.38889C11 9.66503 11.2239 9.88889 11.5 9.88889C11.7761 9.88889 12 9.66503 12 9.38889V7.61111C12 7.33497 11.7761 7.11111 11.5 7.11111C11.2239 7.11111 11 7.33497 11 7.61111V9.38889ZM11 5.38889C11 5.66503 11.2239 5.88889 11.5 5.88889C11.7761 5.88889 12 5.66503 12 5.38889V3.61111C12 3.33497 11.7761 3.11111 11.5 3.11111C11.2239 3.11111 11 3.33497 11 3.61111V5.38889Z" fill="white"/>
</svg>
