<svg width="200" height="200" viewBox="0 0 200 200" fill="none" xmlns="http://www.w3.org/2000/svg">
<g clip-path="url(#clip0_731_2097)">
<path d="M200 0H0V200H200V0Z" fill="#EEEEEE"/>
<path d="M19 13H13V19H19V13Z" fill="black"/>
<path d="M25 13H19V19H25V13Z" fill="black"/>
<path d="M31 13H25V19H31V13Z" fill="black"/>
<path d="M37 13H31V19H37V13Z" fill="black"/>
<path d="M43 13H37V19H43V13Z" fill="black"/>
<path d="M49 13H43V19H49V13Z" fill="black"/>
<path d="M55 13H49V19H55V13Z" fill="black"/>
<path d="M79 13H73V19H79V13Z" fill="black"/>
<path d="M91 13H85V19H91V13Z" fill="black"/>
<path d="M97 13H91V19H97V13Z" fill="black"/>
<path d="M109 13H103V19H109V13Z" fill="black"/>
<path d="M127 13H121V19H127V13Z" fill="black"/>
<path d="M133 13H127V19H133V13Z" fill="black"/>
<path d="M139 13H133V19H139V13Z" fill="black"/>
<path d="M151 13H145V19H151V13Z" fill="black"/>
<path d="M157 13H151V19H157V13Z" fill="black"/>
<path d="M163 13H157V19H163V13Z" fill="black"/>
<path d="M169 13H163V19H169V13Z" fill="black"/>
<path d="M175 13H169V19H175V13Z" fill="black"/>
<path d="M181 13H175V19H181V13Z" fill="black"/>
<path d="M187 13H181V19H187V13Z" fill="black"/>
<path d="M19 19H13V25H19V19Z" fill="black"/>
<path d="M55 19H49V25H55V19Z" fill="black"/>
<path d="M67 19H61V25H67V19Z" fill="black"/>
<path d="M79 19H73V25H79V19Z" fill="black"/>
<path d="M97 19H91V25H97V19Z" fill="black"/>
<path d="M103 19H97V25H103V19Z" fill="black"/>
<path d="M109 19H103V25H109V19Z" fill="black"/>
<path d="M115 19H109V25H115V19Z" fill="black"/>
<path d="M139 19H133V25H139V19Z" fill="black"/>
<path d="M151 19H145V25H151V19Z" fill="black"/>
<path d="M187 19H181V25H187V19Z" fill="black"/>
<path d="M19 25H13V31H19V25Z" fill="black"/>
<path d="M31 25H25V31H31V25Z" fill="black"/>
<path d="M37 25H31V31H37V25Z" fill="black"/>
<path d="M43 25H37V31H43V25Z" fill="black"/>
<path d="M55 25H49V31H55V25Z" fill="black"/>
<path d="M91 25H85V31H91V25Z" fill="black"/>
<path d="M97 25H91V31H97V25Z" fill="black"/>
<path d="M115 25H109V31H115V25Z" fill="black"/>
<path d="M127 25H121V31H127V25Z" fill="black"/>
<path d="M133 25H127V31H133V25Z" fill="black"/>
<path d="M139 25H133V31H139V25Z" fill="black"/>
<path d="M151 25H145V31H151V25Z" fill="black"/>
<path d="M163 25H157V31H163V25Z" fill="black"/>
<path d="M169 25H163V31H169V25Z" fill="black"/>
<path d="M175 25H169V31H175V25Z" fill="black"/>
<path d="M187 25H181V31H187V25Z" fill="black"/>
<path d="M19 31H13V37H19V31Z" fill="black"/>
<path d="M31 31H25V37H31V31Z" fill="black"/>
<path d="M37 31H31V37H37V31Z" fill="black"/>
<path d="M43 31H37V37H43V31Z" fill="black"/>
<path d="M55 31H49V37H55V31Z" fill="black"/>
<path d="M67 31H61V37H67V31Z" fill="black"/>
<path d="M73 31H67V37H73V31Z" fill="black"/>
<path d="M79 31H73V37H79V31Z" fill="black"/>
<path d="M91 31H85V37H91V31Z" fill="black"/>
<path d="M103 31H97V37H103V31Z" fill="black"/>
<path d="M121 31H115V37H121V31Z" fill="black"/>
<path d="M133 31H127V37H133V31Z" fill="black"/>
<path d="M151 31H145V37H151V31Z" fill="black"/>
<path d="M163 31H157V37H163V31Z" fill="black"/>
<path d="M169 31H163V37H169V31Z" fill="black"/>
<path d="M175 31H169V37H175V31Z" fill="black"/>
<path d="M187 31H181V37H187V31Z" fill="black"/>
<path d="M19 37H13V43H19V37Z" fill="black"/>
<path d="M31 37H25V43H31V37Z" fill="black"/>
<path d="M37 37H31V43H37V37Z" fill="black"/>
<path d="M43 37H37V43H43V37Z" fill="black"/>
<path d="M55 37H49V43H55V37Z" fill="black"/>
<path d="M73 37H67V43H73V37Z" fill="black"/>
<path d="M121 37H115V43H121V37Z" fill="black"/>
<path d="M127 37H121V43H127V37Z" fill="black"/>
<path d="M133 37H127V43H133V37Z" fill="black"/>
<path d="M151 37H145V43H151V37Z" fill="black"/>
<path d="M163 37H157V43H163V37Z" fill="black"/>
<path d="M169 37H163V43H169V37Z" fill="black"/>
<path d="M175 37H169V43H175V37Z" fill="black"/>
<path d="M187 37H181V43H187V37Z" fill="black"/>
<path d="M19 43H13V49H19V43Z" fill="black"/>
<path d="M55 43H49V49H55V43Z" fill="black"/>
<path d="M67 43H61V49H67V43Z" fill="black"/>
<path d="M73 43H67V49H73V43Z" fill="black"/>
<path d="M85 43H79V49H85V43Z" fill="black"/>
<path d="M91 43H85V49H91V43Z" fill="black"/>
<path d="M109 43H103V49H109V43Z" fill="black"/>
<path d="M115 43H109V49H115V43Z" fill="black"/>
<path d="M121 43H115V49H121V43Z" fill="black"/>
<path d="M139 43H133V49H139V43Z" fill="black"/>
<path d="M151 43H145V49H151V43Z" fill="black"/>
<path d="M187 43H181V49H187V43Z" fill="black"/>
<path d="M19 49H13V55H19V49Z" fill="black"/>
<path d="M25 49H19V55H25V49Z" fill="black"/>
<path d="M31 49H25V55H31V49Z" fill="black"/>
<path d="M37 49H31V55H37V49Z" fill="black"/>
<path d="M43 49H37V55H43V49Z" fill="black"/>
<path d="M49 49H43V55H49V49Z" fill="black"/>
<path d="M55 49H49V55H55V49Z" fill="black"/>
<path d="M67 49H61V55H67V49Z" fill="black"/>
<path d="M79 49H73V55H79V49Z" fill="black"/>
<path d="M91 49H85V55H91V49Z" fill="black"/>
<path d="M103 49H97V55H103V49Z" fill="black"/>
<path d="M115 49H109V55H115V49Z" fill="black"/>
<path d="M127 49H121V55H127V49Z" fill="black"/>
<path d="M139 49H133V55H139V49Z" fill="black"/>
<path d="M151 49H145V55H151V49Z" fill="black"/>
<path d="M157 49H151V55H157V49Z" fill="black"/>
<path d="M163 49H157V55H163V49Z" fill="black"/>
<path d="M169 49H163V55H169V49Z" fill="black"/>
<path d="M175 49H169V55H175V49Z" fill="black"/>
<path d="M181 49H175V55H181V49Z" fill="black"/>
<path d="M187 49H181V55H187V49Z" fill="black"/>
<path d="M73 55H67V61H73V55Z" fill="black"/>
<path d="M79 55H73V61H79V55Z" fill="black"/>
<path d="M85 55H79V61H85V55Z" fill="black"/>
<path d="M103 55H97V61H103V55Z" fill="black"/>
<path d="M109 55H103V61H109V55Z" fill="black"/>
<path d="M139 55H133V61H139V55Z" fill="black"/>
<path d="M19 61H13V67H19V61Z" fill="black"/>
<path d="M25 61H19V67H25V61Z" fill="black"/>
<path d="M31 61H25V67H31V61Z" fill="black"/>
<path d="M37 61H31V67H37V61Z" fill="black"/>
<path d="M43 61H37V67H43V61Z" fill="black"/>
<path d="M55 61H49V67H55V61Z" fill="black"/>
<path d="M61 61H55V67H61V61Z" fill="black"/>
<path d="M67 61H61V67H67V61Z" fill="black"/>
<path d="M73 61H67V67H73V61Z" fill="black"/>
<path d="M85 61H79V67H85V61Z" fill="black"/>
<path d="M109 61H103V67H109V61Z" fill="black"/>
<path d="M121 61H115V67H121V61Z" fill="black"/>
<path d="M133 61H127V67H133V61Z" fill="black"/>
<path d="M145 61H139V67H145V61Z" fill="black"/>
<path d="M157 61H151V67H157V61Z" fill="black"/>
<path d="M169 61H163V67H169V61Z" fill="black"/>
<path d="M181 61H175V67H181V61Z" fill="black"/>
<path d="M19 67H13V73H19V67Z" fill="black"/>
<path d="M25 67H19V73H25V67Z" fill="black"/>
<path d="M31 67H25V73H31V67Z" fill="black"/>
<path d="M43 67H37V73H43V67Z" fill="black"/>
<path d="M49 67H43V73H49V67Z" fill="black"/>
<path d="M61 67H55V73H61V67Z" fill="black"/>
<path d="M67 67H61V73H67V67Z" fill="black"/>
<path d="M79 67H73V73H79V67Z" fill="black"/>
<path d="M91 67H85V73H91V67Z" fill="black"/>
<path d="M97 67H91V73H97V67Z" fill="black"/>
<path d="M103 67H97V73H103V67Z" fill="black"/>
<path d="M115 67H109V73H115V67Z" fill="black"/>
<path d="M127 67H121V73H127V67Z" fill="black"/>
<path d="M133 67H127V73H133V67Z" fill="black"/>
<path d="M139 67H133V73H139V67Z" fill="black"/>
<path d="M145 67H139V73H145V67Z" fill="black"/>
<path d="M151 67H145V73H151V67Z" fill="black"/>
<path d="M157 67H151V73H157V67Z" fill="black"/>
<path d="M163 67H157V73H163V67Z" fill="black"/>
<path d="M187 67H181V73H187V67Z" fill="black"/>
<path d="M19 73H13V79H19V73Z" fill="black"/>
<path d="M37 73H31V79H37V73Z" fill="black"/>
<path d="M49 73H43V79H49V73Z" fill="black"/>
<path d="M55 73H49V79H55V73Z" fill="black"/>
<path d="M61 73H55V79H61V73Z" fill="black"/>
<path d="M79 73H73V79H79V73Z" fill="black"/>
<path d="M97 73H91V79H97V73Z" fill="black"/>
<path d="M103 73H97V79H103V73Z" fill="black"/>
<path d="M109 73H103V79H109V73Z" fill="black"/>
<path d="M115 73H109V79H115V73Z" fill="black"/>
<path d="M121 73H115V79H121V73Z" fill="black"/>
<path d="M139 73H133V79H139V73Z" fill="black"/>
<path d="M31 79H25V85H31V79Z" fill="black"/>
<path d="M49 79H43V85H49V79Z" fill="black"/>
<path d="M67 79H61V85H67V79Z" fill="black"/>
<path d="M91 79H85V85H91V79Z" fill="black"/>
<path d="M97 79H91V85H97V79Z" fill="black"/>
<path d="M109 79H103V85H109V79Z" fill="black"/>
<path d="M115 79H109V85H115V79Z" fill="black"/>
<path d="M133 79H127V85H133V79Z" fill="black"/>
<path d="M139 79H133V85H139V79Z" fill="black"/>
<path d="M145 79H139V85H145V79Z" fill="black"/>
<path d="M151 79H145V85H151V79Z" fill="black"/>
<path d="M157 79H151V85H157V79Z" fill="black"/>
<path d="M169 79H163V85H169V79Z" fill="black"/>
<path d="M181 79H175V85H181V79Z" fill="black"/>
<path d="M19 85H13V91H19V85Z" fill="black"/>
<path d="M25 85H19V91H25V85Z" fill="black"/>
<path d="M43 85H37V91H43V85Z" fill="black"/>
<path d="M49 85H43V91H49V85Z" fill="black"/>
<path d="M55 85H49V91H55V85Z" fill="black"/>
<path d="M67 85H61V91H67V85Z" fill="black"/>
<path d="M73 85H67V91H73V85Z" fill="black"/>
<path d="M79 85H73V91H79V85Z" fill="black"/>
<path d="M91 85H85V91H91V85Z" fill="black"/>
<path d="M103 85H97V91H103V85Z" fill="black"/>
<path d="M121 85H115V91H121V85Z" fill="black"/>
<path d="M133 85H127V91H133V85Z" fill="black"/>
<path d="M169 85H163V91H169V85Z" fill="black"/>
<path d="M175 85H169V91H175V85Z" fill="black"/>
<path d="M31 91H25V97H31V91Z" fill="black"/>
<path d="M37 91H31V97H37V91Z" fill="black"/>
<path d="M49 91H43V97H49V91Z" fill="black"/>
<path d="M61 91H55V97H61V91Z" fill="black"/>
<path d="M115 91H109V97H115V91Z" fill="black"/>
<path d="M133 91H127V97H133V91Z" fill="black"/>
<path d="M139 91H133V97H139V91Z" fill="black"/>
<path d="M145 91H139V97H145V91Z" fill="black"/>
<path d="M151 91H145V97H151V91Z" fill="black"/>
<path d="M163 91H157V97H163V91Z" fill="black"/>
<path d="M187 91H181V97H187V91Z" fill="black"/>
<path d="M25 97H19V103H25V97Z" fill="black"/>
<path d="M43 97H37V103H43V97Z" fill="black"/>
<path d="M55 97H49V103H55V97Z" fill="black"/>
<path d="M67 97H61V103H67V97Z" fill="black"/>
<path d="M73 97H67V103H73V97Z" fill="black"/>
<path d="M85 97H79V103H85V97Z" fill="black"/>
<path d="M91 97H85V103H91V97Z" fill="black"/>
<path d="M109 97H103V103H109V97Z" fill="black"/>
<path d="M115 97H109V103H115V97Z" fill="black"/>
<path d="M121 97H115V103H121V97Z" fill="black"/>
<path d="M127 97H121V103H127V97Z" fill="black"/>
<path d="M139 97H133V103H139V97Z" fill="black"/>
<path d="M145 97H139V103H145V97Z" fill="black"/>
<path d="M151 97H145V103H151V97Z" fill="black"/>
<path d="M157 97H151V103H157V97Z" fill="black"/>
<path d="M169 97H163V103H169V97Z" fill="black"/>
<path d="M175 97H169V103H175V97Z" fill="black"/>
<path d="M31 103H25V109H31V103Z" fill="black"/>
<path d="M37 103H31V109H37V103Z" fill="black"/>
<path d="M43 103H37V109H43V103Z" fill="black"/>
<path d="M61 103H55V109H61V103Z" fill="black"/>
<path d="M85 103H79V109H85V103Z" fill="black"/>
<path d="M103 103H97V109H103V103Z" fill="black"/>
<path d="M115 103H109V109H115V103Z" fill="black"/>
<path d="M133 103H127V109H133V103Z" fill="black"/>
<path d="M157 103H151V109H157V103Z" fill="black"/>
<path d="M163 103H157V109H163V103Z" fill="black"/>
<path d="M181 103H175V109H181V103Z" fill="black"/>
<path d="M19 109H13V115H19V109Z" fill="black"/>
<path d="M37 109H31V115H37V109Z" fill="black"/>
<path d="M49 109H43V115H49V109Z" fill="black"/>
<path d="M55 109H49V115H55V109Z" fill="black"/>
<path d="M61 109H55V115H61V109Z" fill="black"/>
<path d="M67 109H61V115H67V109Z" fill="black"/>
<path d="M79 109H73V115H79V109Z" fill="black"/>
<path d="M85 109H79V115H85V109Z" fill="black"/>
<path d="M109 109H103V115H109V109Z" fill="black"/>
<path d="M121 109H115V115H121V109Z" fill="black"/>
<path d="M127 109H121V115H127V109Z" fill="black"/>
<path d="M157 109H151V115H157V109Z" fill="black"/>
<path d="M169 109H163V115H169V109Z" fill="black"/>
<path d="M175 109H169V115H175V109Z" fill="black"/>
<path d="M19 115H13V121H19V115Z" fill="black"/>
<path d="M31 115H25V121H31V115Z" fill="black"/>
<path d="M37 115H31V121H37V115Z" fill="black"/>
<path d="M49 115H43V121H49V115Z" fill="black"/>
<path d="M61 115H55V121H61V115Z" fill="black"/>
<path d="M67 115H61V121H67V115Z" fill="black"/>
<path d="M91 115H85V121H91V115Z" fill="black"/>
<path d="M97 115H91V121H97V115Z" fill="black"/>
<path d="M103 115H97V121H103V115Z" fill="black"/>
<path d="M115 115H109V121H115V115Z" fill="black"/>
<path d="M121 115H115V121H121V115Z" fill="black"/>
<path d="M127 115H121V121H127V115Z" fill="black"/>
<path d="M133 115H127V121H133V115Z" fill="black"/>
<path d="M139 115H133V121H139V115Z" fill="black"/>
<path d="M145 115H139V121H145V115Z" fill="black"/>
<path d="M151 115H145V121H151V115Z" fill="black"/>
<path d="M157 115H151V121H157V115Z" fill="black"/>
<path d="M163 115H157V121H163V115Z" fill="black"/>
<path d="M175 115H169V121H175V115Z" fill="black"/>
<path d="M187 115H181V121H187V115Z" fill="black"/>
<path d="M19 121H13V127H19V121Z" fill="black"/>
<path d="M37 121H31V127H37V121Z" fill="black"/>
<path d="M49 121H43V127H49V121Z" fill="black"/>
<path d="M55 121H49V127H55V121Z" fill="black"/>
<path d="M61 121H55V127H61V121Z" fill="black"/>
<path d="M97 121H91V127H97V121Z" fill="black"/>
<path d="M103 121H97V127H103V121Z" fill="black"/>
<path d="M109 121H103V127H109V121Z" fill="black"/>
<path d="M115 121H109V127H115V121Z" fill="black"/>
<path d="M157 121H151V127H157V121Z" fill="black"/>
<path d="M175 121H169V127H175V121Z" fill="black"/>
<path d="M19 127H13V133H19V127Z" fill="black"/>
<path d="M31 127H25V133H31V127Z" fill="black"/>
<path d="M67 127H61V133H67V127Z" fill="black"/>
<path d="M79 127H73V133H79V127Z" fill="black"/>
<path d="M91 127H85V133H91V127Z" fill="black"/>
<path d="M97 127H91V133H97V127Z" fill="black"/>
<path d="M109 127H103V133H109V127Z" fill="black"/>
<path d="M133 127H127V133H133V127Z" fill="black"/>
<path d="M139 127H133V133H139V127Z" fill="black"/>
<path d="M151 127H145V133H151V127Z" fill="black"/>
<path d="M157 127H151V133H157V127Z" fill="black"/>
<path d="M163 127H157V133H163V127Z" fill="black"/>
<path d="M181 127H175V133H181V127Z" fill="black"/>
<path d="M19 133H13V139H19V133Z" fill="black"/>
<path d="M37 133H31V139H37V133Z" fill="black"/>
<path d="M43 133H37V139H43V133Z" fill="black"/>
<path d="M49 133H43V139H49V133Z" fill="black"/>
<path d="M55 133H49V139H55V133Z" fill="black"/>
<path d="M61 133H55V139H61V133Z" fill="black"/>
<path d="M67 133H61V139H67V133Z" fill="black"/>
<path d="M73 133H67V139H73V133Z" fill="black"/>
<path d="M91 133H85V139H91V133Z" fill="black"/>
<path d="M103 133H97V139H103V133Z" fill="black"/>
<path d="M121 133H115V139H121V133Z" fill="black"/>
<path d="M133 133H127V139H133V133Z" fill="black"/>
<path d="M139 133H133V139H139V133Z" fill="black"/>
<path d="M145 133H139V139H145V133Z" fill="black"/>
<path d="M151 133H145V139H151V133Z" fill="black"/>
<path d="M157 133H151V139H157V133Z" fill="black"/>
<path d="M163 133H157V139H163V133Z" fill="black"/>
<path d="M175 133H169V139H175V133Z" fill="black"/>
<path d="M181 133H175V139H181V133Z" fill="black"/>
<path d="M187 133H181V139H187V133Z" fill="black"/>
<path d="M67 139H61V145H67V139Z" fill="black"/>
<path d="M73 139H67V145H73V139Z" fill="black"/>
<path d="M79 139H73V145H79V139Z" fill="black"/>
<path d="M115 139H109V145H115V139Z" fill="black"/>
<path d="M121 139H115V145H121V139Z" fill="black"/>
<path d="M127 139H121V145H127V139Z" fill="black"/>
<path d="M139 139H133V145H139V139Z" fill="black"/>
<path d="M163 139H157V145H163V139Z" fill="black"/>
<path d="M169 139H163V145H169V139Z" fill="black"/>
<path d="M175 139H169V145H175V139Z" fill="black"/>
<path d="M181 139H175V145H181V139Z" fill="black"/>
<path d="M187 139H181V145H187V139Z" fill="black"/>
<path d="M19 145H13V151H19V145Z" fill="black"/>
<path d="M25 145H19V151H25V145Z" fill="black"/>
<path d="M31 145H25V151H31V145Z" fill="black"/>
<path d="M37 145H31V151H37V145Z" fill="black"/>
<path d="M43 145H37V151H43V145Z" fill="black"/>
<path d="M49 145H43V151H49V145Z" fill="black"/>
<path d="M55 145H49V151H55V145Z" fill="black"/>
<path d="M67 145H61V151H67V145Z" fill="black"/>
<path d="M73 145H67V151H73V145Z" fill="black"/>
<path d="M79 145H73V151H79V145Z" fill="black"/>
<path d="M85 145H79V151H85V145Z" fill="black"/>
<path d="M91 145H85V151H91V145Z" fill="black"/>
<path d="M109 145H103V151H109V145Z" fill="black"/>
<path d="M121 145H115V151H121V145Z" fill="black"/>
<path d="M133 145H127V151H133V145Z" fill="black"/>
<path d="M139 145H133V151H139V145Z" fill="black"/>
<path d="M151 145H145V151H151V145Z" fill="black"/>
<path d="M163 145H157V151H163V145Z" fill="black"/>
<path d="M169 145H163V151H169V145Z" fill="black"/>
<path d="M175 145H169V151H175V145Z" fill="black"/>
<path d="M19 151H13V157H19V151Z" fill="black"/>
<path d="M55 151H49V157H55V151Z" fill="black"/>
<path d="M79 151H73V157H79V151Z" fill="black"/>
<path d="M85 151H79V157H85V151Z" fill="black"/>
<path d="M103 151H97V157H103V151Z" fill="black"/>
<path d="M115 151H109V157H115V151Z" fill="black"/>
<path d="M139 151H133V157H139V151Z" fill="black"/>
<path d="M163 151H157V157H163V151Z" fill="black"/>
<path d="M181 151H175V157H181V151Z" fill="black"/>
<path d="M19 157H13V163H19V157Z" fill="black"/>
<path d="M31 157H25V163H31V157Z" fill="black"/>
<path d="M37 157H31V163H37V157Z" fill="black"/>
<path d="M43 157H37V163H43V157Z" fill="black"/>
<path d="M55 157H49V163H55V157Z" fill="black"/>
<path d="M67 157H61V163H67V157Z" fill="black"/>
<path d="M73 157H67V163H73V157Z" fill="black"/>
<path d="M85 157H79V163H85V157Z" fill="black"/>
<path d="M109 157H103V163H109V157Z" fill="black"/>
<path d="M121 157H115V163H121V157Z" fill="black"/>
<path d="M139 157H133V163H139V157Z" fill="black"/>
<path d="M145 157H139V163H145V157Z" fill="black"/>
<path d="M151 157H145V163H151V157Z" fill="black"/>
<path d="M157 157H151V163H157V157Z" fill="black"/>
<path d="M163 157H157V163H163V157Z" fill="black"/>
<path d="M175 157H169V163H175V157Z" fill="black"/>
<path d="M19 163H13V169H19V163Z" fill="black"/>
<path d="M31 163H25V169H31V163Z" fill="black"/>
<path d="M37 163H31V169H37V163Z" fill="black"/>
<path d="M43 163H37V169H43V163Z" fill="black"/>
<path d="M55 163H49V169H55V163Z" fill="black"/>
<path d="M67 163H61V169H67V163Z" fill="black"/>
<path d="M91 163H85V169H91V163Z" fill="black"/>
<path d="M97 163H91V169H97V163Z" fill="black"/>
<path d="M103 163H97V169H103V163Z" fill="black"/>
<path d="M115 163H109V169H115V163Z" fill="black"/>
<path d="M127 163H121V169H127V163Z" fill="black"/>
<path d="M133 163H127V169H133V163Z" fill="black"/>
<path d="M157 163H151V169H157V163Z" fill="black"/>
<path d="M169 163H163V169H169V163Z" fill="black"/>
<path d="M175 163H169V169H175V163Z" fill="black"/>
<path d="M181 163H175V169H181V163Z" fill="black"/>
<path d="M187 163H181V169H187V163Z" fill="black"/>
<path d="M19 169H13V175H19V169Z" fill="black"/>
<path d="M31 169H25V175H31V169Z" fill="black"/>
<path d="M37 169H31V175H37V169Z" fill="black"/>
<path d="M43 169H37V175H43V169Z" fill="black"/>
<path d="M55 169H49V175H55V169Z" fill="black"/>
<path d="M67 169H61V175H67V169Z" fill="black"/>
<path d="M73 169H67V175H73V169Z" fill="black"/>
<path d="M79 169H73V175H79V169Z" fill="black"/>
<path d="M97 169H91V175H97V169Z" fill="black"/>
<path d="M103 169H97V175H103V169Z" fill="black"/>
<path d="M109 169H103V175H109V169Z" fill="black"/>
<path d="M115 169H109V175H115V169Z" fill="black"/>
<path d="M121 169H115V175H121V169Z" fill="black"/>
<path d="M145 169H139V175H145V169Z" fill="black"/>
<path d="M151 169H145V175H151V169Z" fill="black"/>
<path d="M157 169H151V175H157V169Z" fill="black"/>
<path d="M163 169H157V175H163V169Z" fill="black"/>
<path d="M169 169H163V175H169V169Z" fill="black"/>
<path d="M175 169H169V175H175V169Z" fill="black"/>
<path d="M181 169H175V175H181V169Z" fill="black"/>
<path d="M19 175H13V181H19V175Z" fill="black"/>
<path d="M55 175H49V181H55V175Z" fill="black"/>
<path d="M67 175H61V181H67V175Z" fill="black"/>
<path d="M91 175H85V181H91V175Z" fill="black"/>
<path d="M97 175H91V181H97V175Z" fill="black"/>
<path d="M109 175H103V181H109V175Z" fill="black"/>
<path d="M115 175H109V181H115V175Z" fill="black"/>
<path d="M127 175H121V181H127V175Z" fill="black"/>
<path d="M139 175H133V181H139V175Z" fill="black"/>
<path d="M151 175H145V181H151V175Z" fill="black"/>
<path d="M157 175H151V181H157V175Z" fill="black"/>
<path d="M169 175H163V181H169V175Z" fill="black"/>
<path d="M181 175H175V181H181V175Z" fill="black"/>
<path d="M19 181H13V187H19V181Z" fill="black"/>
<path d="M25 181H19V187H25V181Z" fill="black"/>
<path d="M31 181H25V187H31V181Z" fill="black"/>
<path d="M37 181H31V187H37V181Z" fill="black"/>
<path d="M43 181H37V187H43V181Z" fill="black"/>
<path d="M49 181H43V187H49V181Z" fill="black"/>
<path d="M55 181H49V187H55V181Z" fill="black"/>
<path d="M67 181H61V187H67V181Z" fill="black"/>
<path d="M73 181H67V187H73V181Z" fill="black"/>
<path d="M91 181H85V187H91V181Z" fill="black"/>
<path d="M103 181H97V187H103V181Z" fill="black"/>
<path d="M121 181H115V187H121V181Z" fill="black"/>
<path d="M127 181H121V187H127V181Z" fill="black"/>
<path d="M133 181H127V187H133V181Z" fill="black"/>
<path d="M157 181H151V187H157V181Z" fill="black"/>
<path d="M163 181H157V187H163V181Z" fill="black"/>
<path d="M169 181H163V187H169V181Z" fill="black"/>
<path d="M175 181H169V187H175V181Z" fill="black"/>
</g>
<defs>
<clipPath id="clip0_731_2097">
<rect width="200" height="200" fill="white"/>
</clipPath>
</defs>
</svg>
