<svg width="12" height="18" viewBox="0 0 12 18" fill="none" xmlns="http://www.w3.org/2000/svg">
<path d="M6.41106 16.7614L6.82501 17.0419L6.41106 16.7614ZM5.58895 16.7614L5.17499 17.0419H5.17499L5.58895 16.7614ZM10.5 5.54545C10.5 6.86086 10.4986 7.89947 9.95486 9.44083C9.40298 11.0052 8.28484 13.1041 5.9971 16.481L6.82501 17.0419C9.12622 13.645 10.3025 11.4611 10.8979 9.77352C11.5014 8.06293 11.5 6.88044 11.5 5.54545H10.5ZM6 1.5C8.53119 1.5 10.5 3.35499 10.5 5.54545H11.5C11.5 2.71515 8.99165 0.5 6 0.5V1.5ZM1.5 5.54545C1.5 3.35499 3.46881 1.5 6 1.5V0.5C3.00835 0.5 0.5 2.71515 0.5 5.54545H1.5ZM6.0029 16.481C3.71516 13.1041 2.59702 11.0052 2.04514 9.44083C1.50137 7.89947 1.5 6.86086 1.5 5.54545H0.5C0.5 6.88044 0.498631 8.06293 1.1021 9.77352C1.69745 11.4611 2.87378 13.645 5.17499 17.0419L6.0029 16.481ZM5.9971 16.481C5.9963 16.4822 5.9962 16.482 5.99701 16.4813C5.99777 16.4807 5.99868 16.4801 5.99952 16.4796C6.00103 16.4789 6.00118 16.4792 6 16.4792C5.99882 16.4792 5.99897 16.4789 6.00048 16.4796C6.00133 16.4801 6.00223 16.4807 6.00299 16.4813C6.0038 16.482 6.0037 16.4822 6.0029 16.481L5.17499 17.0419C5.57001 17.6249 6.42999 17.6249 6.82501 17.0419L5.9971 16.481ZM7.77273 6C7.77273 6.97905 6.97905 7.77273 6 7.77273V8.77273C7.53134 8.77273 8.77273 7.53134 8.77273 6H7.77273ZM6 4.22727C6.97905 4.22727 7.77273 5.02095 7.77273 6H8.77273C8.77273 4.46867 7.53134 3.22727 6 3.22727V4.22727ZM4.22727 6C4.22727 5.02095 5.02095 4.22727 6 4.22727V3.22727C4.46867 3.22727 3.22727 4.46867 3.22727 6H4.22727ZM6 7.77273C5.02095 7.77273 4.22727 6.97905 4.22727 6H3.22727C3.22727 7.53134 4.46867 8.77273 6 8.77273V7.77273Z" fill="white"/>
</svg>
